#!OML:ASF H:\LiuWeirdWalks\Patient Classification 1\Patient 1\Session 1\male.ASF
:FULLY-SPECIFIED
:DEGREES
499
root 1.07587 17.677 -17.2961 2.74052 3.95424 -7.80795
lowerback 12.7605 0.376378 -8.68267
upperback 0.810862 -0.557686 2.88163
thorax -6.20735 0.0111569 8.14317
lowerneck -17.3971 0.267933 8.46521
upperneck 19.9622 -0.750943 -5.26484
head 9.08456 -0.290722 -3.31618
rclavicle -1.19271e-014 -2.38542e-015
rhumerus -12.9995 -19.5162 -2.85162
rradius 35.7759
rwrist -2.74784
rhand -13.1366 -6.45443
rfingers 7.12502
rthumb 12.9615 -36.0318
lclavicle -1.19271e-014 -2.38542e-015
lhumerus -20.6021 16.6063 27.2407
lradius 38.935
lwrist 2.04316
lhand -15.3678 5.84538
lfingers 7.12502
lthumb 10.81 35.5472
rfemur -16.7706 -14.4169 17.1127
rtibia 57.0339
rfoot -9.12475 -20.6731
rtoes -3.02928
lfemur -12.3784 0.585988 -11.91
ltibia 39.941
lfoot -17.9124 16.4293
ltoes -15.7041
500
root 1.06676 17.6725 -17.2489 2.74119 3.93734 -7.70354
lowerback 12.8205 0.357964 -8.81484
upperback 0.818903 -0.612872 2.78132
thorax -6.22083 -0.0133447 8.12068
lowerneck -17.5445 0.309569 8.48612
upperneck 20.2141 -0.726151 -5.19067
head 9.20151 -0.26582 -3.29866
rclavicle 6.75868e-015 -2.46493e-014
rhumerus -12.8549 -19.6386 -2.81855
rradius 35.8617
rwrist -2.81188
rhand -13.2021 -6.38857
rfingers 7.12502
rthumb 12.8984 -35.97
lclavicle 6.75868e-015 -2.46493e-014
lhumerus -20.7394 16.7323 27.4026
lradius 38.88
lwrist 2.11254
lhand -15.342 5.85953
lfingers 7.12502
lthumb 10.8349 35.56
rfemur -17.4756 -14.6537 17.3068
rtibia 56.6216
rfoot -9.76786 -20.6714
rtoes -3.33491
lfemur -12.1584 0.542243 -11.982
ltibia 39.899
lfoot -17.9732 16.4545
ltoes -15.842
501
root 1.05696 17.6681 -17.202 2.74838 3.93888 -7.59478
lowerback 12.8761 0.338205 -8.93688
upperback 0.836872 -0.668032 2.67844
thorax -6.22121 -0.0392508 8.08912
lowerneck -17.7739 0.3431 8.48179
upperneck 20.5185 -0.716116 -5.10218
head 9.35136 -0.247587 -3.27591
rclavicle -5.36719e-015 1.19271e-014
rhumerus -12.7422 -19.7394 -2.7855
rradius 35.9572
rwrist -2.93321
rhand -13.3257 -6.45948
rfingers 7.12502
rthumb 12.7792 -36.0484
lclavicle -5.36719e-015 1.19271e-014
lhumerus -20.8186 16.8667 27.5726
lradius 38.8121
lwrist 2.14995
lhand -15.3266 5.89633
lfingers 7.12502
lthumb 10.8497 35.5961
rfemur -18.1943 -14.9016 17.5062
rtibia 56.1814
rfoot -10.3361 -20.6711
rtoes -3.62078
lfemur -11.9571 0.498188 -12.0521
ltibia 39.8649
lfoot -18.0269 16.4539
ltoes -16.0029
502
root 1.04644 17.664 -17.1554 2.75933 3.95362 -7.48964
lowerback 12.9471 0.317018 -9.04683
upperback 0.850495 -0.724805 2.57826
thorax -6.23464 -0.065328 8.05433
lowerneck -17.9957 0.380422 8.47272
upperneck 20.835 -0.7009 -5.00665
head 9.50524 -0.225914 -3.24928
rclavicle 8.15017e-015 2.78299e-014
rhumerus -12.6562 -19.795 -2.74873
rradius 36.0613
rwrist -3.07991
rhand -13.447 -6.60899
rfingers 7.12502
rthumb 12.6623 -36.2051
lclavicle 8.15017e-015 2.78299e-014
lhumerus -20.8728 16.9726 27.7446
lradius 38.7488
lwrist 2.17774
lhand -15.3245 5.95638
lfingers 7.12502
lthumb 10.8517 35.656
rfemur -18.923 -15.1495 17.7189
rtibia 55.7126
rfoot -10.8381 -20.6655
rtoes -3.8958
lfemur -11.7722 0.463212 -12.111
ltibia 39.838
lfoot -18.0748 16.426
ltoes -16.1869
503
root 1.03493 17.6605 -17.1087 2.77079 3.97724 -7.3938
lowerback 13.0255 0.296324 -9.14381
upperback 0.867227 -0.779431 2.48335
thorax -6.24937 -0.0906578 8.01762
lowerneck -18.2147 0.410138 8.44648
upperneck 21.1588 -0.69267 -4.90651
head 9.66154 -0.207873 -3.21904
rclavicle -1.41137e-014 -1.19271e-014
rhumerus -12.5919 -19.8251 -2.70842
rradius 36.1721
rwrist -3.24391
rhand -13.5294 -6.79343
rfingers 7.12502
rthumb 12.5829 -36.3945
lclavicle -1.41137e-014 -1.19271e-014
lhumerus -20.8945 17.0695 27.9176
lradius 38.6822
lwrist 2.18171
lhand -15.3076 5.97763
lfingers 7.12502
lthumb 10.868 35.6764
rfemur -19.6558 -15.387 17.9523
rtibia 55.2105
rfoot -11.2632 -20.6541
rtoes -4.16221
lfemur -11.5958 0.438132 -12.1512
ltibia 39.8121
lfoot -18.1159 16.373
ltoes -16.3904
504
root 1.02216 17.6576 -17.0622 2.78733 4.00882 -7.30599
lowerback 13.1184 0.274418 -9.23654
upperback 0.875443 -0.83628 2.39748
thorax -6.28092 -0.115738 7.98948
lowerneck -18.3501 0.432681 8.41105
upperneck 21.4366 -0.684702 -4.80798
head 9.78679 -0.190971 -3.1856
rclavicle 2.06736e-014 3.89618e-014
rhumerus -12.5193 -19.8659 -2.66638
rradius 36.2472
rwrist -3.34969
rhand -13.5086 -6.83832
rfingers 7.12502
rthumb 12.6029 -36.4381
lclavicle 2.06736e-014 3.89618e-014
lhumerus -20.8963 17.1678 28.0861
lradius 38.5985
lwrist 2.14455
lhand -15.3003 5.98345
lfingers 7.12502
lthumb 10.8751 35.6819
rfemur -20.3955 -15.6022 18.2067
rtibia 54.6732
rfoot -11.6517 -20.6342
rtoes -4.37093
lfemur -11.4322 0.428904 -12.1727
ltibia 39.7828
lfoot -18.144 16.2952
ltoes -16.6207
505
root 1.00871 17.6554 -17.0148 2.79696 4.04267 -7.21261
lowerback 13.222 0.253347 -9.33718
upperback 0.87981 -0.894184 2.31785
thorax -6.32218 -0.140261 7.97347
lowerneck -18.3987 0.454788 8.38625
upperneck 21.6319 -0.669028 -4.72823
head 9.86739 -0.172778 -3.15641
rclavicle -1.98785e-015 4.37326e-014
rhumerus -12.4455 -19.8878 -2.61925
rradius 36.2962
rwrist -3.40618
rhand -13.4651 -6.80201
rfingers 7.12502
rthumb 12.6449 -36.3993
lclavicle -1.98785e-015 4.37326e-014
lhumerus -20.9155 17.2311 28.2476
lradius 38.5408
lwrist 2.12126
lhand -15.2851 5.95985
lfingers 7.12502
lthumb 10.8898 35.6575
rfemur -21.1216 -15.8013 18.4581
rtibia 54.0954
rfoot -11.9701 -20.5969
rtoes -4.60782
lfemur -11.255 0.437655 -12.1944
ltibia 39.7432
lfoot -18.1653 16.1959
ltoes -16.8748
506
root 0.994175 17.6541 -16.9668 2.8069 4.08397 -7.12136
lowerback 13.3249 0.229625 -9.44358
upperback 0.888048 -0.955862 2.2484
thorax -6.35774 -0.166742 7.97268
lowerneck -18.3929 0.476924 8.36077
upperneck 21.7913 -0.649288 -4.64609
head 9.92554 -0.152799 -3.12412
rclavicle -2.32578e-014 5.56597e-015
rhumerus -12.3672 -19.9116 -2.56711
rradius 36.3179
rwrist -3.39703
rhand -13.3862 -6.6187
rfingers 7.12502
rthumb 12.7209 -36.2112
lclavicle -2.32578e-014 5.56597e-015
lhumerus -20.9388 17.2844 28.4087
lradius 38.5007
lwrist 2.09836
lhand -15.3099 5.93252
lfingers 7.12502
lthumb 10.8659 35.6314
rfemur -21.8404 -15.9744 18.718
rtibia 53.4755
rfoot -12.2509 -20.5438
rtoes -4.83282
lfemur -11.0752 0.462752 -12.2048
ltibia 39.692
lfoot -18.174 16.072
ltoes -17.1367
507
root 0.978907 17.6535 -16.9181 2.81734 4.1342 -7.02282
lowerback 13.4128 0.204767 -9.56015
upperback 0.909224 -1.01845 2.18544
thorax -6.37037 -0.195086 7.9844
lowerneck -18.3596 0.501209 8.34014
upperneck 21.8594 -0.622476 -4.57939
head 9.94644 -0.132652 -3.0946
rclavicle 1.86858e-014 -7.95139e-016
rhumerus -12.2786 -19.9608 -2.51237
rradius 36.3065
rwrist -3.33003
rhand -13.3276 -6.35744
rfingers 7.12502
rthumb 12.7774 -35.9464
lclavicle 1.86858e-014 -7.95139e-016
lhumerus -20.9478 17.3426 28.5756
lradius 38.4716
lwrist 2.09792
lhand -15.3564 5.89094
lfingers 7.12502
lthumb 10.821 35.5922
rfemur -22.547 -16.1295 18.9705
rtibia 52.8118
rfoot -12.496 -20.4661
rtoes -5.08024
lfemur -10.8894 0.500537 -12.2175
ltibia 39.6266
lfoot -18.1712 15.929
ltoes -17.3935
508
root 0.962938 17.6539 -16.869 2.82995 4.19607 -6.91755
lowerback 13.4876 0.180157 -9.6868
upperback 0.939463 -1.0803 2.12938
thorax -6.36551 -0.224053 8.00885
lowerneck -18.3492 0.535993 8.34105
upperneck 21.9138 -0.586186 -4.52635
head 9.9673 -0.10835 -3.07218
rclavicle 5.04913e-014 3.97569e-015
rhumerus -12.1877 -20.0257 -2.45462
rradius 36.2722
rwrist -3.22174
rhand -13.3208 -6.11696
rfingers 7.12502
rthumb 12.784 -35.7056
lclavicle 5.04913e-014 3.97569e-015
lhumerus -20.9363 17.4127 28.7503
lradius 38.4467
lwrist 2.09941
lhand -15.4163 5.85413
lfingers 7.12502
lthumb 10.7632 35.5584
rfemur -23.2403 -16.2658 19.2146
rtibia 52.1031
rfoot -12.7 -20.3545
rtoes -5.35116
lfemur -10.7031 0.541302 -12.233
ltibia 39.5499
lfoot -18.1515 15.7737
ltoes -17.6197
509
root 0.946567 17.6549 -16.8194 2.8461 4.26946 -6.79918
lowerback 13.553 0.152927 -9.81952
upperback 0.982877 -1.14513 2.07405
thorax -6.34013 -0.25607 8.03753
lowerneck -18.3972 0.576147 8.36212
upperneck 21.9712 -0.547687 -4.49734
head 10.0001 -0.0844808 -3.06204
rclavicle 1.35174e-014 1.66979e-014
rhumerus -12.0928 -20.0972 -2.40616
rradius 36.2379
rwrist -3.15498
rhand -13.3934 -5.95985
rfingers 7.12502
rthumb 12.714 -35.5528
lclavicle 1.35174e-014 1.66979e-014
lhumerus -20.8992 17.4985 28.9242
lradius 38.4226
lwrist 2.09255
lhand -15.4735 5.79462
lfingers 7.12502
lthumb 10.708 35.5017
rfemur -23.9169 -16.3868 19.4375
rtibia 51.3504
rfoot -12.8685 -20.1962
rtoes -5.62415
lfemur -10.5151 0.570785 -12.2622
ltibia 39.462
lfoot -18.1185 15.6184
ltoes -17.8173
510
root 0.929699 17.6565 -16.7694 2.86351 4.36132 -6.68439
lowerback 13.6225 0.118496 -9.94003
upperback 1.02784 -1.21778 2.02345
thorax -6.31363 -0.292364 8.06585
lowerneck -18.457 0.61619 8.36736
upperneck 22.0637 -0.510362 -4.44916
head 10.0478 -0.0595385 -3.04347
rclavicle -4.37326e-015 -1.11319e-014
rhumerus -11.9835 -20.1806 -2.37483
rradius 36.1995
rwrist -3.11907
rhand -13.506 -5.8947
rfingers 7.12502
rthumb 12.6054 -35.4944
lclavicle -4.37326e-015 -1.11319e-014
lhumerus -20.8519 17.5648 29.0913
lradius 38.4123
lwrist 2.11462
lhand -15.5283 5.76612
lfingers 7.12502
lthumb 10.6552 35.476
rfemur -24.5739 -16.4892 19.6579
rtibia 50.5509
rfoot -13.0074 -20.0045
rtoes -5.8926
lfemur -10.3278 0.580101 -12.2861
ltibia 39.3647
lfoot -18.0727 15.4677
ltoes -17.9894
